<?xml version="1.0" standalone="no"?>
<!DOCTYPE svg PUBLIC "-//W3C//DTD SVG 20010904//EN"
 "http://www.w3.org/TR/2001/REC-SVG-20010904/DTD/svg10.dtd">
<svg version="1.0" xmlns="http://www.w3.org/2000/svg"
 width="1280.000000pt" height="640.000000pt" viewBox="0 0 1280.000000 640.000000"
 preserveAspectRatio="xMidYMid meet">
<g transform="translate(0.000000,640.000000) scale(0.100000,-0.100000)"
fill="#000000" stroke="none">
<path d="M632 4986 c-93 -44 -199 -126 -290 -220 -104 -110 -166 -200 -233
-340 -50 -105 -109 -305 -109 -371 0 -53 36 -178 72 -248 73 -147 297 -293
342 -224 9 14 3 33 -36 106 -60 112 -80 195 -80 336 -1 226 67 448 193 630 61
89 121 148 145 143 18 -3 19 -37 19 -1023 0 -1096 -3 -1149 -52 -1326 -14 -52
-28 -111 -31 -131 -4 -37 -3 -38 29 -38 90 0 226 123 294 265 96 200 98 230
99 1380 1 1102 11 995 -99 1047 -93 43 -191 48 -263 14z"/>
<path d="M4194 5002 c-28 -18 -35 -59 -40 -234 -3 -101 -7 -203 -10 -227 l-6
-44 -179 7 -179 7 -19 -31 c-38 -63 -48 -182 -17 -202 6 -4 59 -8 117 -8 58 0
140 -3 182 -6 l77 -7 0 -411 0 -411 -33 -97 c-19 -53 -55 -130 -80 -171 -53
-84 -132 -177 -152 -177 -9 0 -14 27 -17 103 -3 88 -8 110 -34 162 -43 88
-125 169 -320 316 -96 73 -174 134 -174 135 0 2 19 30 43 62 24 33 61 94 82
138 32 64 40 92 43 150 4 68 3 72 -27 102 -22 22 -45 33 -77 38 -186 28 -356
-104 -394 -307 -14 -72 2 -145 46 -210 19 -28 34 -56 34 -62 0 -34 -329 -597
-391 -670 -46 -53 -91 -81 -119 -72 -10 3 -26 22 -36 43 -16 32 -19 70 -22
269 -2 128 1 351 7 496 6 145 8 279 4 297 -9 46 -74 108 -158 150 -61 30 -80
35 -140 35 -51 -1 -81 -6 -110 -22 -144 -76 -265 -267 -391 -618 -57 -159 -83
-211 -85 -170 -1 11 -1 179 1 373 2 324 1 355 -15 372 -25 27 -118 60 -190 67
-50 5 -63 2 -75 -12 -13 -15 -16 -116 -19 -689 -3 -683 0 -747 35 -821 23 -49
55 -66 139 -72 98 -8 133 6 140 56 33 227 111 526 188 723 121 310 321 614
361 550 3 -5 -2 -190 -11 -411 -14 -331 -15 -425 -5 -534 27 -288 83 -382 232
-382 80 0 140 30 235 118 96 88 168 190 361 513 97 162 181 294 188 294 7 0
74 -60 148 -132 113 -111 141 -145 169 -203 30 -61 34 -79 34 -150 0 -67 -4
-87 -25 -125 -34 -61 -80 -90 -142 -90 -60 0 -101 17 -185 75 -87 61 -111 65
-155 27 -52 -46 -90 -123 -86 -174 3 -36 8 -46 42 -69 116 -78 385 -114 556
-73 207 48 385 207 520 465 28 54 55 99 60 99 9 0 14 -23 25 -105 11 -82 54
-216 90 -281 40 -72 109 -138 173 -167 63 -28 182 -30 232 -3 96 52 179 147
250 289 25 49 50 89 55 88 6 -1 17 -23 26 -49 29 -86 80 -175 132 -229 190
-201 502 -147 683 117 26 39 52 69 58 67 5 -2 15 -24 22 -50 25 -98 101 -188
192 -229 67 -30 179 -30 249 1 58 26 134 100 177 174 15 26 32 47 36 47 4 0
22 -22 39 -49 161 -250 457 -267 682 -39 42 42 79 74 83 71 3 -4 6 -41 6 -82
l0 -77 -122 -109 c-264 -237 -431 -415 -496 -528 -65 -112 -81 -265 -40 -374
82 -221 423 -306 649 -162 58 37 147 130 182 189 37 65 74 182 99 317 20 107
22 148 20 432 l-1 314 73 91 c205 255 394 585 501 871 20 55 40 103 43 106 12
11 246 20 261 10 11 -7 9 -31 -12 -147 -38 -203 -50 -332 -44 -479 12 -298 99
-475 275 -562 66 -33 85 -38 146 -38 55 0 82 6 121 24 58 28 155 123 174 169
16 38 43 42 58 9 23 -49 115 -137 176 -167 193 -95 441 -6 578 206 23 35 47
63 52 61 6 -2 19 -28 29 -58 67 -196 282 -304 444 -221 51 26 116 96 149 161
39 78 49 69 58 -57 3 -34 11 -70 18 -78 49 -59 289 -74 324 -20 11 16 17 79
25 237 11 233 21 321 51 444 57 230 165 490 204 490 24 0 33 -46 34 -180 3
-257 54 -672 96 -772 39 -94 132 -144 237 -127 62 10 78 34 78 114 0 217 78
578 182 838 52 132 73 168 82 141 3 -8 7 -160 9 -339 5 -351 16 -463 61 -591
64 -184 186 -284 346 -284 87 0 135 21 196 82 65 67 123 217 151 395 10 63
-52 125 -85 85 -6 -7 -25 -64 -42 -127 -36 -132 -72 -206 -112 -226 -90 -47
-165 24 -204 194 -25 106 -34 395 -23 720 11 338 11 340 -72 392 -63 41 -173
80 -226 80 -83 0 -115 -52 -218 -360 -46 -136 -82 -271 -127 -473 -7 -32 -17
-59 -23 -60 -5 -1 -13 23 -17 53 -11 95 -28 406 -28 528 0 144 -11 186 -60
233 -71 68 -229 101 -282 60 -38 -30 -86 -138 -172 -390 -45 -129 -87 -236
-93 -239 -10 -3 -13 58 -13 281 0 329 4 316 -95 341 -99 25 -167 30 -189 13
-19 -14 -20 -33 -24 -508 -3 -453 -5 -500 -23 -569 -43 -163 -137 -309 -208
-325 -38 -8 -96 18 -123 55 -56 78 -70 298 -56 850 l10 405 -26 22 c-30 26
-101 49 -177 57 -74 9 -101 -7 -113 -64 -5 -25 -11 -47 -13 -49 -1 -2 -32 24
-67 58 -91 87 -137 106 -256 106 -83 0 -103 -4 -154 -27 -233 -110 -377 -449
-375 -883 0 -71 6 -168 13 -214 11 -78 11 -88 -9 -146 -22 -67 -61 -126 -101
-152 -37 -24 -105 -21 -142 6 -73 52 -122 227 -122 435 0 146 12 241 60 465
22 101 40 200 40 220 0 55 -30 103 -80 129 -57 29 -85 28 -265 -8 -82 -16
-165 -30 -182 -30 l-33 0 6 73 c7 86 -12 129 -67 159 -106 57 -256 -16 -294
-143 -31 -108 -17 -179 52 -251 l35 -36 -25 -90 c-62 -216 -186 -474 -330
-689 -50 -74 -50 -75 -46 510 2 302 0 548 -5 556 -14 21 -86 49 -157 60 -105
17 -149 -8 -149 -85 0 -13 -3 -24 -6 -24 -4 0 -35 26 -69 59 -85 79 -136 102
-238 108 -66 4 -93 1 -141 -16 -114 -40 -209 -136 -285 -288 -98 -196 -141
-466 -119 -758 10 -132 9 -143 -11 -196 -27 -71 -74 -142 -108 -164 -37 -25
-96 -24 -130 1 -100 74 -121 254 -103 889 l11 400 -26 22 c-56 48 -236 76
-270 42 -9 -9 -19 -35 -22 -58 -3 -22 -8 -41 -11 -41 -3 0 -34 27 -68 60 -89
86 -136 105 -254 105 -86 0 -101 -3 -160 -31 -81 -39 -159 -116 -222 -221 -86
-141 -130 -311 -149 -562 -12 -173 -28 -238 -80 -347 -63 -128 -171 -234 -240
-234 -36 0 -85 60 -107 131 -37 118 -45 241 -38 554 11 460 25 748 36 759 7 7
95 13 227 16 l217 5 19 32 c10 18 21 57 24 87 5 47 3 55 -14 65 -11 5 -112 15
-224 21 -112 6 -215 13 -228 16 l-24 5 7 212 c7 198 6 214 -11 228 -25 22 -94
47 -175 64 -77 17 -108 18 -124 7z m1436 -1064 c113 -58 160 -196 160 -473 0
-240 -44 -446 -120 -564 -94 -146 -216 -178 -305 -80 -70 77 -105 204 -113
406 -11 294 44 542 144 653 71 78 153 99 234 58z m1559 -11 c90 -60 126 -210
118 -497 -6 -223 -33 -357 -97 -487 -85 -173 -222 -230 -320 -132 -72 72 -109
200 -117 404 -12 286 44 533 148 659 71 84 186 107 268 53z m2621 11 c114 -59
160 -196 160 -483 0 -299 -63 -520 -181 -630 -141 -132 -280 -46 -336 207 -22
100 -22 406 0 538 35 206 99 324 202 371 54 25 102 24 155 -3z m-2463 -1737
c-14 -476 -99 -671 -292 -671 -92 0 -154 51 -175 144 -20 88 17 213 102 343
92 141 336 412 358 398 10 -6 12 -53 7 -214z"/>
</g>
</svg>
